<svg>

<symbol id="logo" width="195" height="18" viewBox="0 0 195 18" fill="none" xmlns="http://www.w3.org/2000/svg">
<path d="M16.8587 0.176539H14.6034C13.9075 0.176539 13.3433 0.729391 13.3433 1.41141V3.62163C13.3433 4.30365 13.9075 4.85654 14.6034 4.85654H16.8587C17.5547 4.85654 18.1188 4.30365 18.1188 3.62163V1.41141C18.1188 0.729391 17.5547 0.176539 16.8587 0.176539Z" fill="#FBFBFB"/>
<path d="M4.28584 12.96H1.85702C1.10756 12.96 0.5 13.5129 0.5 14.1949V16.4051C0.5 17.0871 1.10756 17.64 1.85702 17.64H4.28584C5.0353 17.64 5.64286 17.0871 5.64286 16.4051V14.1949C5.64286 13.5129 5.0353 12.96 4.28584 12.96Z" fill="#FBFBFB"/>
<path d="M4.0154 6.51477H1.76007C1.06417 6.51477 0.5 7.06763 0.5 7.74965V9.95986C0.5 10.6419 1.0643 11.1948 1.7602 11.1948H4.0154C4.71134 11.1948 5.27551 10.6419 5.27551 9.95986V7.74965C5.27551 7.06763 4.71134 6.51477 4.0154 6.51477Z" fill="#FBFBFB"/>
<path d="M10.4933 12.9252H8.238C7.5421 12.9252 6.97792 13.4781 6.97792 14.1601L6.9778 16.3703C6.9778 17.0523 7.54222 17.6052 8.23813 17.6052H10.4933C11.1893 17.6052 11.7534 17.0523 11.7534 16.3703V14.1601C11.7534 13.4781 11.1893 12.9252 10.4933 12.9252Z" fill="#FBFBFB"/>
<path d="M4.0154 0.0485281H1.76007C1.06417 0.0485281 0.5 0.601379 0.5 1.2834V3.49362C0.5 4.17564 1.0643 4.72853 1.7602 4.72853H4.0154C4.71134 4.72853 5.27551 4.17564 5.27551 3.49362V1.2834C5.27551 0.601379 4.71134 0.0485281 4.0154 0.0485281Z" fill="#FBFBFB"/>
<path d="M10.6677 6.57983H8.41236C7.71645 6.57983 7.15228 7.13268 7.15228 7.8147V10.0249C7.15228 10.7069 7.71658 11.2598 8.41249 11.2598H10.6677C11.3636 11.2598 11.9278 10.7069 11.9278 10.0249V7.8147C11.9278 7.13268 11.3636 6.57983 10.6677 6.57983Z" fill="#FBFBFB"/>
<path d="M17 12.9252H14.7447C14.0488 12.9252 13.4846 13.4781 13.4846 14.1601V16.3703C13.4846 17.0523 14.0489 17.6052 14.7448 17.6052H17C17.6959 17.6052 18.2601 17.0523 18.2601 16.3703V14.1601C18.2601 13.4781 17.6959 12.9252 17 12.9252Z" fill="#FBFBFB"/>
<path d="M10.3947 0.125835H8.13938C7.44348 0.125835 6.87931 0.678686 6.87931 1.36071V3.57093C6.87931 4.25295 7.44361 4.80583 8.13951 4.80583H10.3947C11.0906 4.80583 11.6548 4.25253 11.6548 3.57051V1.36071C11.6548 0.678686 11.0906 0.125835 10.3947 0.125835Z" fill="#FBFBFB"/>
<path d="M16.8371 6.70827H14.5818C13.8859 6.70827 13.3217 7.26113 13.3217 7.94315V10.1534C13.3217 10.8354 13.886 11.3883 14.5819 11.3883H16.8371C17.533 11.3883 18.0972 10.8354 18.0972 10.1534V7.94315C18.0972 7.26113 17.533 6.70827 16.8371 6.70827Z" fill="#FBFBFB"/>
<path d="M33.7504 17C29.3919 17 26.5 14.06 26.5 9.48C26.5 5 29.3506 2 33.6471 2C37.262 2 39.8028 4.06 40.1746 7.16H37.1794C36.8902 5.38 35.5062 4.38 33.6471 4.38C31.0444 4.38 29.4952 6.42 29.4952 9.48C29.4952 12.84 31.2303 14.62 33.7504 14.62C35.94 14.62 37.3446 13.42 37.4892 11.62V11.42H33.4612V9.18H40.2779V11.02C40.1539 14.6 37.5512 17 33.7504 17Z" fill="#FBFBFB"/>
<path d="M42.0837 16.8V2.2H49.3341C53.0316 2.2 54.4982 3.94 54.4982 6.46C54.4982 8.72 52.8457 9.8 50.9247 10.06V10.12C52.164 10.42 52.7218 11.08 53.2382 12.38C53.8992 14.02 54.0025 15.98 54.8494 16.68V16.8H51.5444C50.842 16.12 50.6768 13.98 50.305 12.68C49.9331 11.34 49.1275 11.18 47.6196 11.18H44.9756V16.8H42.0837ZM44.9756 8.86H49.0243C50.7181 8.86 51.503 7.9 51.503 6.66C51.503 5.3 50.5322 4.52 49.0243 4.52H44.9756V8.86Z" fill="#FBFBFB"/>
<path d="M56.419 16.8V2.2H66.7265V4.52H59.3109V8H66.0036V10.32H59.3109V14.42H66.8298V16.8H56.419Z" fill="#FBFBFB"/>
<path d="M68.8378 16.8V2.2H79.1454V4.52H71.7298V8H78.4224V10.32H71.7298V14.42H79.2487V16.8H68.8378Z" fill="#FBFBFB"/>
<path d="M81.2567 16.8V2.2H84.7683L89.7672 10.26C91.2958 12.7 91.4817 13.5 91.4817 13.5H91.5437L91.5023 2.2H94.3943V16.8H90.862L85.6772 8.5C84.4998 6.62 84.19 5.48 84.19 5.48H84.1486V16.8H81.2567Z" fill="#FBFBFB"/>
<path d="M96.5698 16.8V13.84H99.5856V16.8H96.5698Z" fill="#FBFBFB"/>
<path d="M101.757 16.8V2.2H104.649V8.04H111.569V2.2H114.461V16.8H111.569V10.36H104.649V16.8H101.757Z" fill="#FBFBFB"/>
<path d="M115.697 16.8L121.481 2.2H124.621L130.487 16.8H127.389L126.17 13.44H119.911L118.692 16.8H115.697ZM120.737 11.12H125.344L124.001 7.52C123.072 4.86 123.051 4.38 123.051 4.38H123.01C123.01 4.38 123.01 4.86 122.08 7.52L120.737 11.12Z" fill="#FBFBFB"/>
<path d="M131.719 16.8V2.2H138.969C142.667 2.2 144.134 3.94 144.134 6.46C144.134 8.72 142.481 9.8 140.56 10.06V10.12C141.799 10.42 142.357 11.08 142.874 12.38C143.535 14.02 143.638 15.98 144.485 16.68V16.8H141.18C140.477 16.12 140.312 13.98 139.94 12.68C139.568 11.34 138.763 11.18 137.255 11.18H134.611V16.8H131.719ZM134.611 8.86H138.66C140.353 8.86 141.138 7.9 141.138 6.66C141.138 5.3 140.168 4.52 138.66 4.52H134.611V8.86Z" fill="#FBFBFB"/>
<path d="M149.12 16.8L143.584 2.2H146.683C146.683 2.2 149.678 10.38 149.988 11.38C150.484 12.98 150.711 13.8 150.711 13.8H150.752C150.732 13.8 150.959 12.98 151.475 11.38C151.806 10.38 154.677 2.2 154.677 2.2H157.672L152.343 16.8H149.12Z" fill="#FBFBFB"/>
<path d="M158.856 16.8V2.2H169.164V4.52H161.748V8H168.441V10.32H161.748V14.42H169.267V16.8H158.856Z" fill="#FBFBFB"/>
<path d="M176.447 17C172.605 17 170.291 14.98 170.291 11.98H173.596C173.555 13.68 174.712 14.62 176.447 14.62C178.285 14.62 179.153 13.92 179.153 12.88C179.153 11.84 178.409 11.4 175.765 10.7C173.348 10.06 170.704 9.3 170.704 6.3C170.704 3.92 172.853 2 176.24 2C179.731 2 181.962 3.9 181.962 6.58H178.76C178.74 5.16 177.748 4.38 176.24 4.38C174.774 4.38 173.803 5.1 173.803 6.06C173.803 7.2 174.608 7.56 176.715 8.14C179.834 8.98 182.354 9.32 182.354 12.58C182.354 15.2 179.896 17 176.447 17Z" fill="#FBFBFB"/>
<path d="M187.064 16.8V4.58H182.499V2.2H194.5V4.58H189.956V16.8H187.064Z" fill="#FBFBFB"/>
</symbol>

<symbol id="nav-line" width="32" height="24" viewBox="0 0 32 24" fill="none" xmlns="http://www.w3.org/2000/svg">
<path d="M2.66663 2H29.3333M2.66663 12H16M2.66663 22H29.3333" stroke="#FBFBFB" stroke-width="4" stroke-linecap="round" stroke-linejoin="round"/>
</symbol>

<symbol id="menu-icon" width="40" height="40" viewBox="0 0 40 40" fill="none" xmlns="http://www.w3.org/2000/svg">
<path d="M6.6665 10H33.3332M6.6665 20H19.9998M6.6665 30H33.3332" stroke="#FBFBFB" stroke-width="4" stroke-linecap="round" stroke-linejoin="round"/>
</symbol>

<symbol id="exit-icon" width="40" height="40" viewBox="0 0 40 40" fill="none" xmlns="http://www.w3.org/2000/svg">
<path d="M30 10L10 30" stroke="#FBFBFB" stroke-width="4" stroke-linecap="round" stroke-linejoin="round"/>
<path d="M10 10L30 30" stroke="#FBFBFB" stroke-width="4" stroke-linecap="round" stroke-linejoin="round"/>
</symbol>

</svg>