<svg>

<symbol id="logo" width="195" height="18" viewBox="0 0 195 18" fill="none" xmlns="http://www.w3.org/2000/svg">
<path d="M16.8587 0.176539H14.6034C13.9075 0.176539 13.3433 0.729391 13.3433 1.41141V3.62163C13.3433 4.30365 13.9075 4.85654 14.6034 4.85654H16.8587C17.5547 4.85654 18.1188 4.30365 18.1188 3.62163V1.41141C18.1188 0.729391 17.5547 0.176539 16.8587 0.176539Z" fill="#FBFBFB"/>
<path d="M4.28584 12.96H1.85702C1.10756 12.96 0.5 13.5129 0.5 14.1949V16.4051C0.5 17.0871 1.10756 17.64 1.85702 17.64H4.28584C5.0353 17.64 5.64286 17.0871 5.64286 16.4051V14.1949C5.64286 13.5129 5.0353 12.96 4.28584 12.96Z" fill="#FBFBFB"/>
<path d="M4.0154 6.51477H1.76007C1.06417 6.51477 0.5 7.06763 0.5 7.74965V9.95986C0.5 10.6419 1.0643 11.1948 1.7602 11.1948H4.0154C4.71134 11.1948 5.27551 10.6419 5.27551 9.95986V7.74965C5.27551 7.06763 4.71134 6.51477 4.0154 6.51477Z" fill="#FBFBFB"/>
<path d="M10.4933 12.9252H8.238C7.5421 12.9252 6.97792 13.4781 6.97792 14.1601L6.9778 16.3703C6.9778 17.0523 7.54222 17.6052 8.23813 17.6052H10.4933C11.1893 17.6052 11.7534 17.0523 11.7534 16.3703V14.1601C11.7534 13.4781 11.1893 12.9252 10.4933 12.9252Z" fill="#FBFBFB"/>
<path d="M4.0154 0.0485281H1.76007C1.06417 0.0485281 0.5 0.601379 0.5 1.2834V3.49362C0.5 4.17564 1.0643 4.72853 1.7602 4.72853H4.0154C4.71134 4.72853 5.27551 4.17564 5.27551 3.49362V1.2834C5.27551 0.601379 4.71134 0.0485281 4.0154 0.0485281Z" fill="#FBFBFB"/>
<path d="M10.6677 6.57983H8.41236C7.71645 6.57983 7.15228 7.13268 7.15228 7.8147V10.0249C7.15228 10.7069 7.71658 11.2598 8.41249 11.2598H10.6677C11.3636 11.2598 11.9278 10.7069 11.9278 10.0249V7.8147C11.9278 7.13268 11.3636 6.57983 10.6677 6.57983Z" fill="#FBFBFB"/>
<path d="M17 12.9252H14.7447C14.0488 12.9252 13.4846 13.4781 13.4846 14.1601V16.3703C13.4846 17.0523 14.0489 17.6052 14.7448 17.6052H17C17.6959 17.6052 18.2601 17.0523 18.2601 16.3703V14.1601C18.2601 13.4781 17.6959 12.9252 17 12.9252Z" fill="#FBFBFB"/>
<path d="M10.3947 0.125835H8.13938C7.44348 0.125835 6.87931 0.678686 6.87931 1.36071V3.57093C6.87931 4.25295 7.44361 4.80583 8.13951 4.80583H10.3947C11.0906 4.80583 11.6548 4.25253 11.6548 3.57051V1.36071C11.6548 0.678686 11.0906 0.125835 10.3947 0.125835Z" fill="#FBFBFB"/>
<path d="M16.8371 6.70827H14.5818C13.8859 6.70827 13.3217 7.26113 13.3217 7.94315V10.1534C13.3217 10.8354 13.886 11.3883 14.5819 11.3883H16.8371C17.533 11.3883 18.0972 10.8354 18.0972 10.1534V7.94315C18.0972 7.26113 17.533 6.70827 16.8371 6.70827Z" fill="#FBFBFB"/>
<path d="M33.7504 17C29.3919 17 26.5 14.06 26.5 9.48C26.5 5 29.3506 2 33.6471 2C37.262 2 39.8028 4.06 40.1746 7.16H37.1794C36.8902 5.38 35.5062 4.38 33.6471 4.38C31.0444 4.38 29.4952 6.42 29.4952 9.48C29.4952 12.84 31.2303 14.62 33.7504 14.62C35.94 14.62 37.3446 13.42 37.4892 11.62V11.42H33.4612V9.18H40.2779V11.02C40.1539 14.6 37.5512 17 33.7504 17Z" fill="#FBFBFB"/>
<path d="M42.0837 16.8V2.2H49.3341C53.0316 2.2 54.4982 3.94 54.4982 6.46C54.4982 8.72 52.8457 9.8 50.9247 10.06V10.12C52.164 10.42 52.7218 11.08 53.2382 12.38C53.8992 14.02 54.0025 15.98 54.8494 16.68V16.8H51.5444C50.842 16.12 50.6768 13.98 50.305 12.68C49.9331 11.34 49.1275 11.18 47.6196 11.18H44.9756V16.8H42.0837ZM44.9756 8.86H49.0243C50.7181 8.86 51.503 7.9 51.503 6.66C51.503 5.3 50.5322 4.52 49.0243 4.52H44.9756V8.86Z" fill="#FBFBFB"/>
<path d="M56.419 16.8V2.2H66.7265V4.52H59.3109V8H66.0036V10.32H59.3109V14.42H66.8298V16.8H56.419Z" fill="#FBFBFB"/>
<path d="M68.8378 16.8V2.2H79.1454V4.52H71.7298V8H78.4224V10.32H71.7298V14.42H79.2487V16.8H68.8378Z" fill="#FBFBFB"/>
<path d="M81.2567 16.8V2.2H84.7683L89.7672 10.26C91.2958 12.7 91.4817 13.5 91.4817 13.5H91.5437L91.5023 2.2H94.3943V16.8H90.862L85.6772 8.5C84.4998 6.62 84.19 5.48 84.19 5.48H84.1486V16.8H81.2567Z" fill="#FBFBFB"/>
<path d="M96.5698 16.8V13.84H99.5856V16.8H96.5698Z" fill="#FBFBFB"/>
<path d="M101.757 16.8V2.2H104.649V8.04H111.569V2.2H114.461V16.8H111.569V10.36H104.649V16.8H101.757Z" fill="#FBFBFB"/>
<path d="M115.697 16.8L121.481 2.2H124.621L130.487 16.8H127.389L126.17 13.44H119.911L118.692 16.8H115.697ZM120.737 11.12H125.344L124.001 7.52C123.072 4.86 123.051 4.38 123.051 4.38H123.01C123.01 4.38 123.01 4.86 122.08 7.52L120.737 11.12Z" fill="#FBFBFB"/>
<path d="M131.719 16.8V2.2H138.969C142.667 2.2 144.134 3.94 144.134 6.46C144.134 8.72 142.481 9.8 140.56 10.06V10.12C141.799 10.42 142.357 11.08 142.874 12.38C143.535 14.02 143.638 15.98 144.485 16.68V16.8H141.18C140.477 16.12 140.312 13.98 139.94 12.68C139.568 11.34 138.763 11.18 137.255 11.18H134.611V16.8H131.719ZM134.611 8.86H138.66C140.353 8.86 141.138 7.9 141.138 6.66C141.138 5.3 140.168 4.52 138.66 4.52H134.611V8.86Z" fill="#FBFBFB"/>
<path d="M149.12 16.8L143.584 2.2H146.683C146.683 2.2 149.678 10.38 149.988 11.38C150.484 12.98 150.711 13.8 150.711 13.8H150.752C150.732 13.8 150.959 12.98 151.475 11.38C151.806 10.38 154.677 2.2 154.677 2.2H157.672L152.343 16.8H149.12Z" fill="#FBFBFB"/>
<path d="M158.856 16.8V2.2H169.164V4.52H161.748V8H168.441V10.32H161.748V14.42H169.267V16.8H158.856Z" fill="#FBFBFB"/>
<path d="M176.447 17C172.605 17 170.291 14.98 170.291 11.98H173.596C173.555 13.68 174.712 14.62 176.447 14.62C178.285 14.62 179.153 13.92 179.153 12.88C179.153 11.84 178.409 11.4 175.765 10.7C173.348 10.06 170.704 9.3 170.704 6.3C170.704 3.92 172.853 2 176.24 2C179.731 2 181.962 3.9 181.962 6.58H178.76C178.74 5.16 177.748 4.38 176.24 4.38C174.774 4.38 173.803 5.1 173.803 6.06C173.803 7.2 174.608 7.56 176.715 8.14C179.834 8.98 182.354 9.32 182.354 12.58C182.354 15.2 179.896 17 176.447 17Z" fill="#FBFBFB"/>
<path d="M187.064 16.8V4.58H182.499V2.2H194.5V4.58H189.956V16.8H187.064Z" fill="#FBFBFB"/>
</symbol>


<symbol id="icon" width="18" height="18" viewBox="0 0 18 18" fill="none" xmlns="http://www.w3.org/2000/svg">
<path d="M16.3587 0.176539H14.1034C13.4075 0.176539 12.8433 0.729391 12.8433 1.41141V3.62163C12.8433 4.30365 13.4075 4.85654 14.1034 4.85654H16.3587C17.0547 4.85654 17.6188 4.30365 17.6188 3.62163V1.41141C17.6188 0.729391 17.0547 0.176539 16.3587 0.176539Z" fill="#FBFBFB"/>
<path d="M3.78584 12.96H1.35702C0.607555 12.96 0 13.5129 0 14.1949V16.4051C0 17.0871 0.607555 17.64 1.35702 17.64H3.78584C4.5353 17.64 5.14286 17.0871 5.14286 16.4051V14.1949C5.14286 13.5129 4.5353 12.96 3.78584 12.96Z" fill="#FBFBFB"/>
<path d="M3.5154 6.51477H1.26007C0.564171 6.51477 0 7.06763 0 7.74965V9.95986C0 10.6419 0.564299 11.1948 1.2602 11.1948H3.5154C4.21134 11.1948 4.77551 10.6419 4.77551 9.95986V7.74965C4.77551 7.06763 4.21134 6.51477 3.5154 6.51477Z" fill="#FBFBFB"/>
<path d="M9.99332 12.9252H7.738C7.0421 12.9252 6.47792 13.4781 6.47792 14.1601L6.4778 16.3703C6.4778 17.0523 7.04222 17.6052 7.73813 17.6052H9.99332C10.6893 17.6052 11.2534 17.0523 11.2534 16.3703V14.1601C11.2534 13.4781 10.6893 12.9252 9.99332 12.9252Z" fill="#FBFBFB"/>
<path d="M3.5154 0.0485281H1.26007C0.564171 0.0485281 0 0.601379 0 1.2834V3.49362C0 4.17564 0.564299 4.72853 1.2602 4.72853H3.5154C4.21134 4.72853 4.77551 4.17564 4.77551 3.49362V1.2834C4.77551 0.601379 4.21134 0.0485281 3.5154 0.0485281Z" fill="#FBFBFB"/>
<path d="M10.1677 6.57983H7.91236C7.21645 6.57983 6.65228 7.13268 6.65228 7.8147V10.0249C6.65228 10.7069 7.21658 11.2598 7.91249 11.2598H10.1677C10.8636 11.2598 11.4278 10.7069 11.4278 10.0249V7.8147C11.4278 7.13268 10.8636 6.57983 10.1677 6.57983Z" fill="#FBFBFB"/>
<path d="M16.5 12.9252H14.2447C13.5488 12.9252 12.9846 13.4781 12.9846 14.1601V16.3703C12.9846 17.0523 13.5489 17.6052 14.2448 17.6052H16.5C17.1959 17.6052 17.7601 17.0523 17.7601 16.3703V14.1601C17.7601 13.4781 17.1959 12.9252 16.5 12.9252Z" fill="#FBFBFB"/>
<path d="M9.89471 0.125835H7.63938C6.94348 0.125835 6.37931 0.678686 6.37931 1.36071V3.57093C6.37931 4.25295 6.94361 4.80583 7.63951 4.80583H9.89471C10.5906 4.80583 11.1548 4.25253 11.1548 3.57051V1.36071C11.1548 0.678686 10.5906 0.125835 9.89471 0.125835Z" fill="#FBFBFB"/>
<path d="M16.3371 6.70827H14.0818C13.3859 6.70827 12.8217 7.26113 12.8217 7.94315V10.1534C12.8217 10.8354 13.386 11.3883 14.0819 11.3883H16.3371C17.033 11.3883 17.5972 10.8354 17.5972 10.1534V7.94315C17.5972 7.26113 17.033 6.70827 16.3371 6.70827Z" fill="#FBFBFB"/>
</symbol>

<symbol id="text" width="168" height="15" viewBox="0 0 168 15" fill="none" xmlns="http://www.w3.org/2000/svg">
<path d="M7.25042 15C2.89191 15 0 12.06 0 7.48C0 3 2.85059 0 7.14714 0C10.762 0 13.3028 2.06 13.6746 5.16H10.6794C10.3902 3.38 9.00622 2.38 7.14714 2.38C4.54442 2.38 2.99519 4.42 2.99519 7.48C2.99519 10.84 4.73033 12.62 7.25042 12.62C9.44001 12.62 10.8446 11.42 10.9892 9.62V9.42H6.96123V7.18H13.7779V9.02C13.6539 12.6 11.0512 15 7.25042 15Z" fill="#FBFBFB"/>
<path d="M15.5837 14.8V0.2H22.8341C26.5316 0.2 27.9982 1.94 27.9982 4.46C27.9982 6.72 26.3457 7.8 24.4247 8.06V8.12C25.664 8.42 26.2218 9.08 26.7382 10.38C27.3992 12.02 27.5025 13.98 28.3494 14.68V14.8H25.0444C24.342 14.12 24.1768 11.98 23.805 10.68C23.4331 9.34 22.6275 9.18 21.1196 9.18H18.4756V14.8H15.5837ZM18.4756 6.86H22.5243C24.2181 6.86 25.003 5.9 25.003 4.66C25.003 3.3 24.0322 2.52 22.5243 2.52H18.4756V6.86Z" fill="#FBFBFB"/>
<path d="M29.919 14.8V0.2H40.2265V2.52H32.8109V6H39.5036V8.32H32.8109V12.42H40.3298V14.8H29.919Z" fill="#FBFBFB"/>
<path d="M42.3378 14.8V0.2H52.6454V2.52H45.2298V6H51.9224V8.32H45.2298V12.42H52.7487V14.8H42.3378Z" fill="#FBFBFB"/>
<path d="M54.7567 14.8V0.2H58.2683L63.2672 8.26C64.7958 10.7 64.9817 11.5 64.9817 11.5H65.0437L65.0023 0.2H67.8943V14.8H64.362L59.1772 6.5C57.9998 4.62 57.69 3.48 57.69 3.48H57.6486V14.8H54.7567Z" fill="#FBFBFB"/>
<path d="M70.0698 14.8V11.84H73.0856V14.8H70.0698Z" fill="#FBFBFB"/>
<path d="M75.2575 14.8V0.2H78.1494V6.04H85.0693V0.2H87.9612V14.8H85.0693V8.36H78.1494V14.8H75.2575Z" fill="#FBFBFB"/>
<path d="M89.1972 14.8L94.981 0.2H98.1208L103.987 14.8H100.889L99.67 11.44H93.4111L92.1924 14.8H89.1972ZM94.2374 9.12H98.8438L97.5011 5.52C96.5716 2.86 96.5509 2.38 96.5509 2.38H96.5096C96.5096 2.38 96.5096 2.86 95.5801 5.52L94.2374 9.12Z" fill="#FBFBFB"/>
<path d="M105.219 14.8V0.2H112.469C116.167 0.2 117.634 1.94 117.634 4.46C117.634 6.72 115.981 7.8 114.06 8.06V8.12C115.299 8.42 115.857 9.08 116.374 10.38C117.035 12.02 117.138 13.98 117.985 14.68V14.8H114.68C113.977 14.12 113.812 11.98 113.44 10.68C113.068 9.34 112.263 9.18 110.755 9.18H108.111V14.8H105.219ZM108.111 6.86H112.16C113.853 6.86 114.638 5.9 114.638 4.66C114.638 3.3 113.668 2.52 112.16 2.52H108.111V6.86Z" fill="#FBFBFB"/>
<path d="M122.62 14.8L117.084 0.2H120.183C120.183 0.2 123.178 8.38 123.488 9.38C123.984 10.98 124.211 11.8 124.211 11.8H124.252C124.232 11.8 124.459 10.98 124.975 9.38C125.306 8.38 128.177 0.2 128.177 0.2H131.172L125.843 14.8H122.62Z" fill="#FBFBFB"/>
<path d="M132.356 14.8V0.2H142.664V2.52H135.248V6H141.941V8.32H135.248V12.42H142.767V14.8H132.356Z" fill="#FBFBFB"/>
<path d="M149.947 15C146.105 15 143.791 12.98 143.791 9.98H147.096C147.055 11.68 148.212 12.62 149.947 12.62C151.785 12.62 152.653 11.92 152.653 10.88C152.653 9.84 151.909 9.4 149.265 8.7C146.848 8.06 144.204 7.3 144.204 4.3C144.204 1.92 146.353 0 149.74 0C153.231 0 155.462 1.9 155.462 4.58H152.26C152.24 3.16 151.248 2.38 149.74 2.38C148.274 2.38 147.303 3.1 147.303 4.06C147.303 5.2 148.108 5.56 150.215 6.14C153.334 6.98 155.854 7.32 155.854 10.58C155.854 13.2 153.396 15 149.947 15Z" fill="#FBFBFB"/>
<path d="M160.564 14.8V2.58H155.999V0.2H168V2.58H163.456V14.8H160.564Z" fill="#FBFBFB"/>
</symbol>

<symbol id="menu-icon" width="40" height="40" viewBox="0 0 40 40" fill="none" xmlns="http://www.w3.org/2000/svg">
<path d="M6.6665 10H33.3332M6.6665 20H19.9998M6.6665 30H33.3332" stroke="#FBFBFB" stroke-width="4" stroke-linecap="round" stroke-linejoin="round"/>
</symbol>

<symbol id="exit-icon" width="40" height="40" viewBox="0 0 40 40" fill="none" xmlns="http://www.w3.org/2000/svg">
<path d="M30 10L10 30" stroke="#FBFBFB" stroke-width="4" stroke-linecap="round" stroke-linejoin="round"/>
<path d="M10 10L30 30" stroke="#FBFBFB" stroke-width="4" stroke-linecap="round" stroke-linejoin="round"/>
</symbol>

</svg>